<svg version="1" xmlns="http://www.w3.org/2000/svg" viewBox="0 0 34 32"><title>email</title><path d="M32 11.768V25.2c0 .737-.262 1.379-.785 1.902s-1.165.785-1.902.785H4.398c-.737 0-1.379-.262-1.902-.785s-.785-1.165-.785-1.902V11.768a9.305 9.305 0 0 0 1.712 1.474c4.089 2.782 6.894 4.731 8.416 5.848.642.475 1.165.832 1.569 1.117.404.262.927.547 1.593.808.666.285 1.284.404 1.854.404h.024c.571 0 1.189-.143 1.854-.404.666-.285 1.189-.547 1.593-.808s.927-.642 1.569-1.117c1.926-1.379 4.731-3.328 8.416-5.848.642-.452 1.212-.927 1.688-1.474zm0-4.969c0 .88-.285 1.735-.832 2.544s-1.236 1.498-2.068 2.092a1374.866 1374.866 0 0 1-7.917 5.492c-.119.071-.357.262-.713.523s-.666.475-.903.642c-.238.166-.547.357-.88.547a3.942 3.942 0 0 1-.975.452 2.361 2.361 0 0 1-.856.166h-.024c-.262 0-.547-.048-.856-.143s-.618-.262-.975-.452c-.333-.214-.642-.38-.88-.547s-.547-.38-.903-.642-.618-.428-.713-.523c-1.022-.713-2.496-1.759-4.422-3.091s-3.091-2.14-3.471-2.401c-.689-.475-1.355-1.117-1.973-1.949s-.927-1.593-.927-2.306c0-.88.238-1.617.713-2.211s1.141-.88 1.997-.88h24.915c.737 0 1.379.261 1.902.785S32 6.038 32 6.799z"/></svg>