<svg version="1" xmlns="http://www.w3.org/2000/svg" viewBox="0 0 34 32"><title>linkedin</title><path d="M8.582 10.936v19.566H2.068V10.936h6.514zm.405-6.039c.024.951-.309 1.759-.998 2.401s-1.569.975-2.686.975h-.048c-1.07 0-1.949-.333-2.615-.975s-.998-1.45-.998-2.401c0-.975.333-1.783 1.022-2.425s1.569-.951 2.663-.951 1.973.309 2.615.951 1.046 1.45 1.046 2.425zM32 19.281v11.221h-6.49V20.041c0-1.379-.262-2.473-.808-3.257s-1.355-1.165-2.496-1.165c-.832 0-1.522.238-2.092.689s-.975 1.022-1.26 1.688c-.143.404-.214.927-.214 1.593v10.912h-6.467c.024-5.254.048-9.51.048-12.767s0-5.207-.024-5.848l-.024-.951h6.49v2.853h-.048c.262-.428.523-.785.808-1.094s.642-.666 1.117-1.022 1.046-.666 1.712-.856c.689-.214 1.426-.309 2.259-.309 2.259 0 4.065.737 5.421 2.235C31.335 14.216 32 16.403 32 19.28z"/></svg>