<svg version="1" xmlns="http://www.w3.org/2000/svg" viewBox="0 0 32 32"><title>twitter</title><path d="M32 6.097a13.426 13.426 0 0 1-3.297 3.387c.023.181.023.474.023.858 0 1.761-.248 3.523-.768 5.262s-1.287 3.433-2.349 5.036c-1.039 1.603-2.303 3.026-3.749 4.268s-3.184 2.236-5.239 2.958c-2.055.745-4.223 1.107-6.549 1.107-3.658 0-7.023-.971-10.072-2.936.474.045.994.09 1.581.09 3.049 0 5.759-.926 8.152-2.8-1.423-.023-2.687-.474-3.816-1.31s-1.897-1.92-2.326-3.229c.452.068.858.09 1.242.09.587 0 1.152-.068 1.716-.226-1.513-.316-2.778-1.061-3.771-2.258-.971-1.197-1.468-2.574-1.468-4.178v-.09c.926.519 1.92.79 2.958.836-.903-.587-1.603-1.378-2.123-2.326s-.79-2.01-.79-3.116c0-1.197.294-2.303.903-3.32 1.649 2.01 3.636 3.636 5.984 4.833s4.855 1.874 7.543 2.01a7.025 7.025 0 0 1-.158-1.513c0-1.807.632-3.365 1.92-4.63s2.823-1.92 4.63-1.92c1.897 0 3.5.7 4.788 2.078a13.08 13.08 0 0 0 4.155-1.581c-.497 1.558-1.468 2.755-2.891 3.613 1.265-.113 2.529-.452 3.771-.994z"/></svg>