<svg id="Layer_1" xmlns="http://www.w3.org/2000/svg" xmlns:xlink="http://www.w3.org/1999/xlink" viewBox="0 0 141 40"><style>.st2{fill:#fff}</style><path fill="#e4097d" d="M0 0h141v40H0z"/><defs><path id="SVGID_1_" d="M109.2 3h34v34h-34z"/></defs><clipPath id="SVGID_2_"><use xlink:href="#SVGID_1_" overflow="visible"/></clipPath><path d="M130.3 19.1c-.1-.1-6.6-6.3-6.6-6.3-.5-.5-1.3-.5-1.7 0-.5.5-.5 1.2 0 1.7l5.7 5.5-5.7 5.5c-.5.5-.5 1.2 0 1.7s1.2.5 1.7 0c0 0 6.5-6.3 6.6-6.3.2-.2.4-.5.4-.9 0-.3-.1-.6-.4-.9" clip-path="url(#SVGID_2_)" fill="#fff"/><g><path class="st2" d="M14.1 19.4c0-5.1 3.7-8.8 8.9-8.8s8.9 3.6 8.9 8.8-3.7 8.8-8.9 8.8-8.9-3.6-8.9-8.8zm12.6 0c0-2.5-1.5-4.2-3.7-4.2-2.3 0-3.7 1.6-3.7 4.2 0 2.5 1.5 4.1 3.7 4.1s3.7-1.6 3.7-4.1zM32.3 25.5V13.3c0-1.6.8-2.4 2.1-2.4h.5c1.2 0 1.6.4 2.3 1.2l6 7.9v-6.7c0-1.6.8-2.4 2.3-2.4h.5c1.4 0 2.2.8 2.2 2.4v12.2c0 1.6-.8 2.4-2.1 2.4h-.4c-1.2 0-1.6-.3-2.3-1.1l-6.2-8v6.7c0 1.6-.8 2.4-2.3 2.4h-.4c-1.5.1-2.2-.8-2.2-2.4zM48.2 13.3c0-1.5.8-2.2 2.4-2.2h10.8c1.6 0 2.4.7 2.4 2.2v.1c0 1.5-.8 2.3-2.4 2.3h-2.7v10c0 1.6-.8 2.4-2.3 2.4h-.7c-1.4 0-2.2-.8-2.2-2.4v-10h-2.8c-1.7-.2-2.5-1-2.5-2.4z"/><path class="st2" d="M63.8 25V13.9c0-1.9 1.1-2.9 2.7-2.9H71c5.5 0 8.9 3.2 8.9 8.3 0 5.2-3.5 8.5-9 8.5h-4.2c-1.6 0-2.9-1.2-2.9-2.8zm6.9-1.6c2.4 0 4-1.5 4-4.1 0-2.5-1.5-3.9-4-3.9H69v8h1.7zM80.3 25V13.9c0-1.9.9-2.9 2.7-2.9h8.9c1.7 0 2.4.8 2.4 2.2v.1c0 1.4-.8 2.2-2.4 2.2h-6.4v1.7h4.3c1.7 0 2.4.7 2.4 2v.1c0 1.4-.7 2.1-2.4 2.1h-4.3v2H92c1.6 0 2.4.7 2.4 2.1v.1c0 1.4-.8 2.3-2.4 2.3h-9c-1.8-.1-2.7-1-2.7-2.9zM94.9 25.5V13.3c0-1.6.8-2.4 2.2-2.4h.8c1.5 0 2.3.8 2.3 2.4v5l4.1-5.6c.9-1.3 1.9-1.8 2.9-1.8 1.8 0 3.1 1.6 3 2l-4.7 6.4 4.9 6.8c.2.3-1.2 1.9-3.1 1.9-1 0-2-.4-2.9-1.7l-4.1-5.7v5c0 1.6-.8 2.4-2.3 2.4h-.8c-1.5 0-2.3-.9-2.3-2.5z"/></g></svg>