<!-- Generated by IcoMoon.io -->
<svg version="1.1" xmlns="http://www.w3.org/2000/svg" width="34" height="32" viewBox="0 0 34 32">
<title>email</title>
<path d="M32 11.768v13.432c0 0.737-0.262 1.379-0.785 1.902s-1.165 0.785-1.902 0.785h-24.915c-0.737 0-1.379-0.262-1.902-0.785s-0.785-1.165-0.785-1.902v-13.432c0.499 0.547 1.070 1.046 1.712 1.474 4.089 2.782 6.894 4.731 8.416 5.848 0.642 0.475 1.165 0.832 1.569 1.117 0.404 0.262 0.927 0.547 1.593 0.808 0.666 0.285 1.284 0.404 1.854 0.404h0.024c0.571 0 1.189-0.143 1.854-0.404 0.666-0.285 1.189-0.547 1.593-0.808s0.927-0.642 1.569-1.117c1.926-1.379 4.731-3.328 8.416-5.848 0.642-0.452 1.212-0.927 1.688-1.474zM32 6.799c0 0.88-0.285 1.735-0.832 2.544s-1.236 1.498-2.068 2.092c-4.232 2.948-6.871 4.779-7.917 5.492-0.119 0.071-0.357 0.262-0.713 0.523s-0.666 0.475-0.903 0.642c-0.238 0.166-0.547 0.357-0.88 0.547-0.333 0.214-0.666 0.357-0.975 0.452-0.309 0.119-0.594 0.166-0.856 0.166h-0.024c-0.262 0-0.547-0.048-0.856-0.143s-0.618-0.262-0.975-0.452c-0.333-0.214-0.642-0.38-0.88-0.547s-0.547-0.38-0.903-0.642-0.618-0.428-0.713-0.523c-1.022-0.713-2.496-1.759-4.422-3.091s-3.091-2.14-3.471-2.401c-0.689-0.475-1.355-1.117-1.973-1.949s-0.927-1.593-0.927-2.306c0-0.88 0.238-1.617 0.713-2.211s1.141-0.88 1.997-0.88h24.915c0.737 0 1.379 0.261 1.902 0.785s0.761 1.141 0.761 1.902z"></path>
</svg>
