<!-- Generated by IcoMoon.io -->
<svg version="1.1" xmlns="http://www.w3.org/2000/svg" width="34" height="32" viewBox="0 0 34 32">
<title>linkedin</title>
<path d="M8.582 10.936v19.566h-6.514v-19.566h6.514zM8.987 4.897c0.024 0.951-0.309 1.759-0.998 2.401s-1.569 0.975-2.686 0.975h-0.048c-1.070 0-1.949-0.333-2.615-0.975s-0.998-1.45-0.998-2.401c0-0.975 0.333-1.783 1.022-2.425s1.569-0.951 2.663-0.951 1.973 0.309 2.615 0.951 1.046 1.45 1.046 2.425zM32 19.281v11.221h-6.49v-10.461c0-1.379-0.262-2.473-0.808-3.257s-1.355-1.165-2.496-1.165c-0.832 0-1.522 0.238-2.092 0.689s-0.975 1.022-1.26 1.688c-0.143 0.404-0.214 0.927-0.214 1.593v10.912h-6.467c0.024-5.254 0.048-9.51 0.048-12.767s0-5.207-0.024-5.848l-0.024-0.951h6.49v2.853h-0.048c0.262-0.428 0.523-0.785 0.808-1.094s0.642-0.666 1.117-1.022 1.046-0.666 1.712-0.856c0.689-0.214 1.426-0.309 2.259-0.309 2.259 0 4.065 0.737 5.421 2.235 1.403 1.474 2.068 3.661 2.068 6.538z"></path>
</svg>
