<!-- Generated by IcoMoon.io -->
<svg version="1.1" xmlns="http://www.w3.org/2000/svg" width="32" height="32" viewBox="0 0 32 32">
<title>twitter</title>
<path d="M32 6.097c-0.903 1.332-2.010 2.462-3.297 3.387 0.023 0.181 0.023 0.474 0.023 0.858 0 1.761-0.248 3.523-0.768 5.262s-1.287 3.433-2.349 5.036c-1.039 1.603-2.303 3.026-3.749 4.268s-3.184 2.236-5.239 2.958c-2.055 0.745-4.223 1.107-6.549 1.107-3.658 0-7.023-0.971-10.072-2.936 0.474 0.045 0.994 0.090 1.581 0.090 3.049 0 5.759-0.926 8.152-2.8-1.423-0.023-2.687-0.474-3.816-1.31s-1.897-1.92-2.326-3.229c0.452 0.068 0.858 0.090 1.242 0.090 0.587 0 1.152-0.068 1.716-0.226-1.513-0.316-2.778-1.061-3.771-2.258-0.971-1.197-1.468-2.574-1.468-4.178v-0.090c0.926 0.519 1.92 0.79 2.958 0.836-0.903-0.587-1.603-1.378-2.123-2.326s-0.79-2.010-0.79-3.116c0-1.197 0.294-2.303 0.903-3.32 1.649 2.010 3.636 3.636 5.984 4.833s4.855 1.874 7.543 2.010c-0.113-0.519-0.158-1.016-0.158-1.513 0-1.807 0.632-3.365 1.92-4.63s2.823-1.92 4.63-1.92c1.897 0 3.5 0.7 4.788 2.078 1.468-0.294 2.868-0.813 4.155-1.581-0.497 1.558-1.468 2.755-2.891 3.613 1.265-0.113 2.529-0.452 3.771-0.994z"></path>
</svg>
