<svg id="Layer_1" data-name="Layer 1" xmlns="http://www.w3.org/2000/svg" viewBox="0 0 275.65 98.21"><defs><style>.cls-1{fill:#1d1d1b;stroke:#000;stroke-miterlimit:10;stroke-width:10px;}</style></defs><title>wantit-logo</title><path class="cls-1" d="M89.7,12a4.84,4.84,0,0,1-.75,2.2l-0.64,3.28-0.38,2.31-1.61,5.75L85.78,27l-1.24-.21L83.69,27l-0.21,1.29L85,28.8a7.6,7.6,0,0,1-.3,1.91,3.24,3.24,0,0,1-1,1.1A8,8,0,0,1,82.13,37l-1.67,2.42L80.57,41l-0.43,1.77-0.32,1.72-1.24,2.63v1.45a12.18,12.18,0,0,1-1.07,3.33l-0.64,1.61-0.7-.21a2.39,2.39,0,0,1-1.07,1.34l0.21,1.72L76,56.67l-0.32,1.5L74,62.37l-1.29,2.42-0.11,2.52-0.21,1.45,0.75,2-0.64,1.07L70.9,74l-0.21,2.2-0.43,1.34L70,79.07l-1.34,2-0.54,2.52A4.56,4.56,0,0,1,67,85.84,2.68,2.68,0,0,1,65,86.7l-1.29-.48a3.72,3.72,0,0,0-.32-1.4l-1.13-2L61.45,78,60.7,75.58l-0.81-.11L60,72.95l1.13-.32a4.4,4.4,0,0,0-.91-1.48,3.58,3.58,0,0,0-1.61-.73l0.21-2.58-0.21-1.5a1.91,1.91,0,0,0,1-.81L59,64.89l-0.32-.11-0.43-1.07-1.45-5.85-1.77-3.06-1.18-6-1.77-3.6L51.3,44.1a1.86,1.86,0,0,0,1-.32,2.57,2.57,0,0,0,.67-1,1.75,1.75,0,0,0-1.18-.7,5.26,5.26,0,0,0-.56,0l-0.56.08-0.21-.75,0.11-2.85-0.75-2-0.11-1a1.28,1.28,0,0,0-1.13-.75,0.69,0.69,0,0,0-.64.43l-2.09,7.63L44.75,44l-1.13,1.77-1.07,2.74,0.11,2.74a3.15,3.15,0,0,1-2,2.74l-0.11,1.24-0.64,1.34v3.06L39.11,60.7l-0.43,1.24L39,62.26l-0.32,1.24-2,6.34L36,72.73l-0.43,1.4a5.92,5.92,0,0,0-.21,1.34,4.64,4.64,0,0,0,.64,2,3.46,3.46,0,0,0-1.24.64,2.49,2.49,0,0,0-.54,1.07l0.32,0.38L34,81.27l-0.54,3.54a2.63,2.63,0,0,1-1,1.07l-0.86.7-0.11-.48A5.5,5.5,0,0,1,29.9,84.5a16.12,16.12,0,0,1-1.1-3l-1.24-3.92-1.29-6a21.27,21.27,0,0,0-1.67-3.49L25.14,67l1.13-2a2.31,2.31,0,0,0-1-1.18L25,64.35l-1.88-.21-0.43-1.45L22.29,59.3l-0.43-1,0.86-2.74-0.32-.86-1.77-.11-2.09-5.1,0.43-1-0.11-.75-0.11-1.24-1.5.21-0.48-1.61-1.07-1.77-1.88-4.83-1.18-1.24-1.13-4-0.64-1,0.43-1.56a1.6,1.6,0,0,0-.43-1.18L9.3,28.15l-1.67-5.8L5.11,18.7a0.61,0.61,0,0,0,0-.19A0.36,0.36,0,0,0,5,18.38q0-.64,1.77-2.63L8,15.85,8.54,15l1.18-.75,1.88-1,1.45-1a4,4,0,0,1,1.88,2.52l1.61,6.61L17,22.78a4.5,4.5,0,0,1-2.09.75l-1-.11a2.32,2.32,0,0,0,2.63,2.09l1.13-.11,0.43,1.67,0.75,2.31,0.91,1.4L20,32.13a4.23,4.23,0,0,1,1.18,2.31q0,0.7-1.4,1.18a3.84,3.84,0,0,1,.54,1.67,2.82,2.82,0,0,1-.54,1.56l1.07,0.86,1.56,0.43,0.11,1.77,1.77,1.88,0.54,1.88,0.54,1.77-0.64.64a5.44,5.44,0,0,1,2,2.31,52.14,52.14,0,0,1,3.06,11.44q0.86,4.3,2.42,4.3A0.09,0.09,0,0,0,32.29,66H32.5l1.24-2.09,1.5-1.56,0.7-1.07A2.52,2.52,0,0,1,35,59.63a1,1,0,0,1,.21-0.75l2.69-4.4,0.64-3.33L40.34,46l0.11-1.77,0.64-1.88L41.2,38.2l0.86-1.45,0.38-2.09,0.86-1.88-0.11-2.2,0.86-4L45,20.79l1.07-1,0.81-1.29-0.48-1.24L46.95,16a4.58,4.58,0,0,0,3.17-1.34l2,0.43L53,16.6l1.24,1.13q0.54,0.43.86,4.14l0.11,1.34-1.4.64a4,4,0,0,0,.46,2.34,2.33,2.33,0,0,0,1.85.56L56.83,31l0.32,1,1.67,3.38,0.11,1.34v0.43l-0.81.64,1.24,1.45a1.61,1.61,0,0,1-1.45,1.07,3.53,3.53,0,0,0,.86,1.34,3.42,3.42,0,0,0,1.34.43,16.83,16.83,0,0,1,1.45,6.61H60.81l0.54,1.13,1,1.29,0.32,4.08,1.56,4.94L65,63.6a2.86,2.86,0,0,0,1.88,1.18l0.32,1.34,0.48-1.45,2.2-5.26,0.11-1L71.55,56l1-1.61-1-1.24,0.32-.86,1-.81L75.2,42l1-1.5,0.91-5.64,1.18-4.73,0.21-.75a2.25,2.25,0,0,0,1.24-1.67l0.43-1.13-1-1.29,1-3.33,0.32-2-0.11-2.2,1.24-1.13,1.61-2.09,4.3-2.09,0.7-1.18h0.54a1.17,1.17,0,0,1,.73.19A0.67,0.67,0,0,1,89.7,12Z"/><path class="cls-1" d="M130.79,76.49l-0.54,1L129.4,78.8l-1.56.59-2.2,1.18-2.09.64a12.15,12.15,0,0,1-2.31.81,1,1,0,0,1-.73-0.4,1.17,1.17,0,0,1-.35-0.73,12.08,12.08,0,0,1,.54-2.42,6.33,6.33,0,0,0,.43-1.88l-1.07.7-4.83,1.61a6.63,6.63,0,0,1-2.9.7h-2.2l-2.52,1.18-1.72.21-5,1-2-.32-1.45.54-1,.21-1.61-.11-3.54-.75-2.42-.21a8.78,8.78,0,0,1-4.27-1.69,8.11,8.11,0,0,1-2.66-3.52l-1.45-.54-0.32-1.34-0.11-1-0.75-2.52,2-4L81.86,65a7.52,7.52,0,0,1,2-2L88,59.57l1.77-.64,3-1.24,0.21,0L93.3,57.8a4.07,4.07,0,0,1,4.08-2.31l0.32-.32h1.13a4.09,4.09,0,0,1,1.4-1.18,13.35,13.35,0,0,1,2.63-.7l6.71-1.18,2,0.21,2.52-.54,4.51-.48q2.31-.54,2.31-2.2a0.44,0.44,0,0,0-.11-0.32l-0.54-2.42,0.43-3.49a2.43,2.43,0,0,0-.81-1.64,3.89,3.89,0,0,0-1.93-.67l-0.75-1.24a9.63,9.63,0,0,0-1.93-2.5,7.75,7.75,0,0,0-2.85-1l-3.06-.7-3-.11-1.45.21a2,2,0,0,1-.75-0.54,2.43,2.43,0,0,1-.43-1l-1.45.64-1.67,1.56L95.4,38.57a5.94,5.94,0,0,0-2.2,1.77l-0.75,1.07a1.64,1.64,0,0,1-1.45.86l-1.07-.21-1.56-.75L86.7,41a5.26,5.26,0,0,1-1.61-.91,1.71,1.71,0,0,1-.81-1.18c0-.21,0-0.32.11-0.32l0.91-.64L87,36.58l1.88-.32,2.85-1.45,3.54-1.18,1-.21,2.31-1.24,1.88,0.32,6.5-1.4,2.74,0.11h2.09L114,32l6.39,1.24,1,0.54v0.75l-0.75.43q0.32,1.88,1.34,1.88l0.16-.08a0.38,0.38,0,0,1,.16,0l1.5-.64H124a0.68,0.68,0,0,1,.7.54l1.07,2,1.13,0.86v1.24l-0.21,2.74a3.76,3.76,0,0,0,1.72,3.06l0.7,7.95-1.45,2,1.67,1.93L129.4,59l-0.32,5,0.43,3.87V70l-0.75.21q0.11,1.34.16,1.72a4.62,4.62,0,0,0,.38,1.1L130,74.77Zm-8.54-9.35a3.87,3.87,0,0,1-1-1.18l0.21-2.2L121,58.82l0.64-1.45-1.72-1-0.91.21-4.94-.32-2.31.11L110,55.16l-1.07.64-3,.11-2.09.81-1.24-.7-1.5.91L93.09,60.8l-1.77,1.29-1.4,2.09L88,65.32a1.34,1.34,0,0,0-.43,1l0.11,0.21,0.43,0.64L88,67.63l1.18,4.83L88,75.52l0.86,1.07,1.45-1.72A14.67,14.67,0,0,0,91.75,76a6.23,6.23,0,0,0,1.56.73q0.91,0.3,2.31.62l1.13,1.5,3.71,0.38,1-1,1.07,0.54,0.75-.43,0.59-.32a8.9,8.9,0,0,0,1.5.43,9,9,0,0,0,4.19-1.5,4.16,4.16,0,0,1,.43-0.24q0.27-.13.81-0.46,4.83,0,6.39-2l1.07-1.4,2.63-2.2,0.11-.64-0.11-.7a1.78,1.78,0,0,0,1-.64A4.15,4.15,0,0,0,122.25,67.14Z"/><path class="cls-1" d="M185.5,70.91l-0.38,1.6-7,4.28a7,7,0,0,1-1.74-2.25l0-.27L177.1,69,177,66.72l0.44,0.06,0.8-1.16a3,3,0,0,0-.84-1,6.09,6.09,0,0,0-1.32-.51l-0.3-.83-0.17-10.08-0.68-1.33L174.82,50,174.41,46l0.44-2-1.06-.86-0.22-3.22a10,10,0,0,0-2.32-3.16l-0.05-.53a1.19,1.19,0,0,0-.53-1l-1.35,0-2.9-1.38-4.35.72L157,34.7a4.8,4.8,0,0,0-1.31,1.48l-1-.11-4.09,1.18-1.46.47-1.72,1.63-2.29,1.32a3.23,3.23,0,0,0-1.71,2.77l0.43,5.25L143.5,52l1.45,3.09,0.18,1.71,0.55,6.37-0.79,2.29,0,0.81,0,0.32,1.19,1.61L147,74l0.62,1.83a1.7,1.7,0,0,1-.24.86,1.78,1.78,0,0,1-.78.81l-3.44,1.22-0.94.31q-0.71,1.53-1.51,1.61a1.66,1.66,0,0,1-1.18-.47,1.39,1.39,0,0,0-.16-0.2l-0.21-.19q-0.26-.41-0.25-0.3l0.4-4L138.75,71l0.35-1.87-0.73-2.95-0.12-3.28-0.6-6.9q-0.14-1.39,1.71-1.74a2.26,2.26,0,0,0-.71-1.41,3.35,3.35,0,0,0-1.77-.12L136,43.07l1.1-.87-0.76-1.06-1.84-3.75-1.09-1.13L133.92,35l1-1.45,1.84-1.05,1.72-1.63a3.08,3.08,0,0,1,1.91-.84,2.5,2.5,0,0,1,1.38.26,1.5,1.5,0,0,1,.84.8l0.62,5,0.38,1.63,1-.42a29.64,29.64,0,0,1,4.06-4.87Q151,30.13,152.3,30a1.37,1.37,0,0,1,1.24,1,10.71,10.71,0,0,0,2.38-1.49,5.74,5.74,0,0,1,2.53-1.12l0.32,0,4.43,0,1.6-.7,5,0.14a6.61,6.61,0,0,1,4.13,1.36l0.74-.18a3.43,3.43,0,0,1,3,1.21l0.94,1.25,1.25,1.65q0.84,0.83,1.15,3.82l0.31,3,0.35,1.26-1.11,1.79,0.56,1.29,0.76,1.11L182,46.55l0.1,1a1.5,1.5,0,0,1,0,.65l-0.59,1.63a3.87,3.87,0,0,0-.05,1.57l1.21,1.28,0.05,1.56L182.93,58l0,0.43,1,2,0.6,4.8Z"/><path class="cls-1" d="M215.89,43.3l-0.41,1.5-0.08,1.13-3,2.85-1.77,2.09-1,.21-1.53-.21a16.76,16.76,0,0,1-2.78-.62,9.78,9.78,0,0,1-1.18-.4h-0.08l-2.76.27-1.61-.38a1.65,1.65,0,0,0-1,.56,1.49,1.49,0,0,0-.39,1,0.7,0.7,0,0,0,.49.75L198.73,59q-1.77.64-1.77,2L197,62.21l1.69,0.43,0.16,5.16L199,68.92l-0.41,1.61a1.63,1.63,0,0,0-.82-0.32,1,1,0,0,0-1,1.24,3.9,3.9,0,0,0,.66,1.67,2,2,0,0,1,.78-0.91A3.2,3.2,0,0,1,199,73l0.08,7.25,0.16,1.07,0.95,2.52a11.63,11.63,0,0,1,.08,1.88,7.13,7.13,0,0,0,1.59,1,4.43,4.43,0,0,0,1.55.21,6.27,6.27,0,0,0,2.62-.59,5.91,5.91,0,0,0,2.08-1.5L212.18,80a0.76,0.76,0,0,1,.66-0.38,2.9,2.9,0,0,1,1.44.7L214,81.55q-0.87,4.46-1.44,4.73l-9.69,4.62L201.2,92l-1.28-1-0.87-.21-0.41,1.45-0.74.11A4.61,4.61,0,0,1,195,90.78,6.37,6.37,0,0,1,193.16,88l-0.25-1.56-0.49-1.83,0.08-3V78.27l0.82-3.54-0.25-1.29-0.16-1.88V70.32l0.16-5.16L193,63.71l-0.16-1.83c0-.14,0-0.21.08-0.21L194,60a1.4,1.4,0,0,0,.21-0.64,1.19,1.19,0,0,0-1.44-1.24l-0.33-.64a75,75,0,0,0,.41-7.84,12.6,12.6,0,0,0-3-.54,12.87,12.87,0,0,0-5.16,1.13,1.2,1.2,0,0,1-.33-0.81,1.53,1.53,0,0,1,.33-1.18l1.61-1.77,0.25-1.24a1.5,1.5,0,0,1,.41-0.7,0.81,0.81,0,0,1,.45-0.27l4.78-.21,1.11-.21-0.08-1.24L193,31.17l-1-3.06-0.25-1.67a10.45,10.45,0,0,1,2.47-3.22,7.85,7.85,0,0,1,3.18-1.4q0.82-1.66,1.44-1.67,1.11,0,1.11,4.89,0,7.41-1,10.53-0.58,2.2-1.15,2.2V40.3a1.7,1.7,0,0,1,.82.13,2,2,0,0,1,.49.67l-0.25,1.5L199,43.84l0.87,0.11L204,45.13a3.49,3.49,0,0,0,1.36.21,2.73,2.73,0,0,0,1.28-.21l1.61-.64,3.09-.43,2.39-1.13h2.1A1.86,1.86,0,0,0,215.89,43.3Z"/><path class="cls-1" d="M227.82,7.12L227.58,9l-0.36,2L226,13.07l0.85,6.37a11.16,11.16,0,0,1-1.4,4.13v1.09L226.37,25l-0.12,1.88,0.24,5a6.2,6.2,0,0,1-.24,2,4.93,4.93,0,0,1-1.15,1.55l0.91,1.4-0.12,1.82v1.64l-1.27,2.12L225.21,44a6.26,6.26,0,0,1,.55,1.76l-0.3,3.34v3.64l-0.85,2.85V56.1a1.77,1.77,0,0,0,1,1.52v2.25l0.18,1.34,0.12,2.61v1l-1.15,3.4,1.15,0.61-0.42,1,0.55,3.4-0.24,5.7,0.36,2.37,0.12,1.58q-5.52,5-7.59,5l-0.73-.12-0.18.67-2.18.49-1-1.52A7.74,7.74,0,0,0,215.69,84v-1.4l1.58-5.34V73.27l2.73-.49,0.12-.55a3.57,3.57,0,0,0-.61-1.58l-1.46.12-0.3-.24-0.36.36,0.24-2,0.12-2.73,0.42-4.49-0.12-2.37,1.09-1.7a5.18,5.18,0,0,1-1.3-1.61,7.2,7.2,0,0,1-.21-2.15,7.29,7.29,0,0,1,.91-3.34l-0.91-1V47.78L217.75,42a1.89,1.89,0,0,0-.12-0.79L217.39,40l-0.12-1.27a2.25,2.25,0,0,0,.79-1.7l-1.15-1.27,0.49-1-0.49-4.49L217.63,28V27.76a3.16,3.16,0,0,0-1.21-2.12l-0.12-1.21-0.36-5.34,0.36-2.25-0.85-1.27,0.12-1.94V10.1A2,2,0,0,1,217.39,9l3.16-.24q0.73-.12,1.94-2.37l2.12-.61,2-.79a3.45,3.45,0,0,0,.85.24A8.45,8.45,0,0,1,227.82,7.12Z"/><path class="cls-1" d="M268.88,34.6l-0.63,1.47-0.18,1.12-4,2.6-2.43,1.95-1.35.13-2-.34a27.58,27.58,0,0,1-3.58-.84,15.44,15.44,0,0,1-1.5-.5h-0.11l-3.61,0-2.07-.5a2.35,2.35,0,0,0-1.29.48,1.33,1.33,0,0,0-.57,1,0.73,0.73,0,0,0,.6.79l-0.54,6.91q-2.35.5-2.43,1.84l0,1.24,2.17,0.56-0.1,5.16,0,1.13-0.64,1.58a2.53,2.53,0,0,0-1.05-.39,1.14,1.14,0,0,0-1.42,1.15,3.41,3.41,0,0,0,.75,1.71A2.34,2.34,0,0,1,244,62a4,4,0,0,1,1,.87l-0.34,7.24,0.15,1.09,1.08,2.6a9,9,0,0,1,0,1.88,10,10,0,0,0,2,1.15,7.39,7.39,0,0,0,2,.34,10.27,10.27,0,0,0,3.44-.38,7.94,7.94,0,0,0,2.8-1.33l5.61-4.5a1.08,1.08,0,0,1,.88-0.32,4.38,4.38,0,0,1,1.83.81l-0.39,1.16q-1.4,4.38-2.17,4.6L249.05,81l-2.27,1-1.6-1.12-1.11-.28L243.45,82l-1,0a6.75,6.75,0,0,1-3.66-1.79q-2.14-2-2.24-2.88l-0.23-1.57L235.82,74l0.29-3,0.21-3.38,1.29-3.47-0.24-1.31-0.1-1.89,0.08-1.23,0.53-5.13,0-1.45-0.1-1.84c0-.14,0-0.21.12-0.21l1.5-1.58a1.18,1.18,0,0,0,.31-0.63q0.08-1.23-1.8-1.35l-0.39-.67a57.81,57.81,0,0,0,1-7.79,17.68,17.68,0,0,0-10.6-.06,1.07,1.07,0,0,1-.38-0.83A1.31,1.31,0,0,1,228,37l2.2-1.64,0.4-1.21a1.48,1.48,0,0,1,.58-0.66,1.16,1.16,0,0,1,.61-0.23l6.23,0.17,1.46-.12,0-1.24,0.38-11.44-1.15-3.14-0.22-1.68a11.4,11.4,0,0,1,3.42-3,11.93,11.93,0,0,1,4.21-1.14q1.17-1.59,2-1.55,1.45,0.09,1.15,5-0.46,7.4-2,10.42-0.89,2.15-1.64,2.11l-0.16,2.52a2.81,2.81,0,0,1,1.06.2,2.11,2.11,0,0,1,.6.71l-0.41,1.48,0.14,1.25L248,33.95l5.29,1.51a5.8,5.8,0,0,0,1.76.32,4.51,4.51,0,0,0,1.68-.11l2.13-.51,4-.18,3.18-.93,1.07,0.07,0.43,0,1.23,0.08A1.51,1.51,0,0,0,268.88,34.6Z"/></svg>