<svg id="Layer_1" data-name="Layer 1" xmlns="http://www.w3.org/2000/svg" viewBox="0 0 281.99 70.7"><title>wantit-logo</title><path d="M21.9,55.9a17.29,17.29,0,0,0,.7,5.45,6.72,6.72,0,0,0,2.15,3.2,9,9,0,0,0,3.6,1.65,32.08,32.08,0,0,0,5,.7,1.05,1.05,0,0,1,1,.55,2.57,2.57,0,0,1,.3,1.25,1.88,1.88,0,0,1-.35,1.1,1.2,1.2,0,0,1-1.05.5A91.6,91.6,0,0,1,24,69.9a72.42,72.42,0,0,0-7.45-.4,70,70,0,0,0-7.5.4,67.28,67.28,0,0,1-7.2.4A1,1,0,0,1,1,69.8a2.5,2.5,0,0,1-.35-1.1A2,2,0,0,1,.9,67.55a1.27,1.27,0,0,1,1-.65,29.3,29.3,0,0,0,4.6-.8,5.75,5.75,0,0,0,2.8-1.6,5.89,5.89,0,0,0,1.35-2.9A26.24,26.24,0,0,0,11,56.8V19.5q0-2.2-.1-4.4a17,17,0,0,0-.65-4A9.07,9.07,0,0,0,8.65,7.9,4.91,4.91,0,0,0,5.8,6.2Q4.7,6,3.5,5.75A20.65,20.65,0,0,0,1.2,5.4,1,1,0,0,1,.3,4.9a2.17,2.17,0,0,1,0-2.2,1,1,0,0,1,.9-0.5,55.79,55.79,0,0,1,6.1.3,57.78,57.78,0,0,0,6.3.3q6-.1,9.95-0.35T31.1,2.2a36.36,36.36,0,0,1,7.85.85A19,19,0,0,1,45.75,6,15.37,15.37,0,0,1,50.5,11.3a16.73,16.73,0,0,1,1.8,8.1,18,18,0,0,1-2.2,9.3,17.11,17.11,0,0,1-6.05,6,28.53,28.53,0,0,1-9,3.35A68.12,68.12,0,0,1,23.8,39.3a2.68,2.68,0,0,0-1.45.3,2.1,2.1,0,0,0-.45,1.7V55.9Zm0-21.7a1,1,0,0,0,.45,1,4.57,4.57,0,0,0,1.65.2,37.77,37.77,0,0,0,8.2-.75,11.91,11.91,0,0,0,5.3-2.5,9.6,9.6,0,0,0,2.85-4.55,24.52,24.52,0,0,0,.85-7q0-7.9-2.9-11.15T28.3,6.2q-3.9,0-5.15,1T21.9,11.3V34.2Z"/><path d="M89.09,45.5a31.67,31.67,0,0,1-1.7,10.8,21.5,21.5,0,0,1-4.85,7.9A20.56,20.56,0,0,1,75,69a27.72,27.72,0,0,1-9.8,1.65,23.89,23.89,0,0,1-8.7-1.55,18.71,18.71,0,0,1-6.9-4.6,21.91,21.91,0,0,1-4.6-7.7,31.86,31.86,0,0,1-1.7-11A24.94,24.94,0,0,1,45,36.55a20.91,20.91,0,0,1,4.75-7.25,21.73,21.73,0,0,1,7.35-4.7,25.35,25.35,0,0,1,9.4-1.7,26.44,26.44,0,0,1,9,1.5,20.23,20.23,0,0,1,7.15,4.35,19.84,19.84,0,0,1,4.7,7.05A25.73,25.73,0,0,1,89.09,45.5Zm-10.5,1.1a53.88,53.88,0,0,0-.5-7.4,22.56,22.56,0,0,0-1.8-6.4,11.51,11.51,0,0,0-3.6-4.5,9.68,9.68,0,0,0-5.9-1.7,11.34,11.34,0,0,0-6.5,1.7,11.92,11.92,0,0,0-3.95,4.55,21.15,21.15,0,0,0-2,6.45,49.54,49.54,0,0,0-.55,7.5,50.78,50.78,0,0,0,.5,7,21.7,21.7,0,0,0,1.9,6.5A13.25,13.25,0,0,0,60,65.1,9.9,9.9,0,0,0,66.29,67a10.23,10.23,0,0,0,6.3-1.8,12.17,12.17,0,0,0,3.75-4.7A21.72,21.72,0,0,0,78.14,54,59.94,59.94,0,0,0,78.59,46.6Z"/><path d="M99.1,57.6q0,2.5.15,4.2a5,5,0,0,0,1,2.8,5.74,5.74,0,0,0,2.8,1.7,26.75,26.75,0,0,0,5.5.9,1.28,1.28,0,0,1,.9.55,1.85,1.85,0,0,1,.3,1,1.69,1.69,0,0,1-.3,1,1,1,0,0,1-.9.45,73.13,73.13,0,0,1-7.6-.35,59.83,59.83,0,0,0-6.3-.35,57.43,57.43,0,0,0-6.35.35A57.69,57.69,0,0,1,82,70.2a0.92,0.92,0,0,1-.8-0.45,1.68,1.68,0,0,1-.3-1,1.85,1.85,0,0,1,.3-1,1.28,1.28,0,0,1,.9-0.55,17.86,17.86,0,0,0,4.35-.9,4.59,4.59,0,0,0,2.25-1.65,5.59,5.59,0,0,0,.85-2.6q0.15-1.55.15-3.85V43.6q0-4.9-.2-7.75a12.4,12.4,0,0,0-.95-4.4,3.78,3.78,0,0,0-2.35-2,20.29,20.29,0,0,0-4.4-.7A0.8,0.8,0,0,1,81,28.2a2.13,2.13,0,0,1,0-2,0.87,0.87,0,0,1,.85-0.5q2-.2,5.55-0.45A37.87,37.87,0,0,0,94.7,24a4,4,0,0,1,2.3-.1,1.44,1.44,0,0,1,.8,1.7L97.6,32a0.25,0.25,0,0,0,.1.25A0.31,0.31,0,0,0,98,32.1a20.13,20.13,0,0,1,5.15-6.7,12.46,12.46,0,0,1,8.15-2.5q4.2,0,6.2,2.15a7.43,7.43,0,0,1,2,5.25,4.46,4.46,0,0,1-1.3,3.1,4.8,4.8,0,0,1-3.7,1.4,3.94,3.94,0,0,1-3.2-1.1,3.71,3.71,0,0,1-.9-2.4,3.85,3.85,0,0,0-.55-2.2,2.72,2.72,0,0,0-2.35-.8A5.36,5.36,0,0,0,104,29.55a12.46,12.46,0,0,0-2.65,2.95A15.41,15.41,0,0,0,99.7,36a9.59,9.59,0,0,0-.6,2.8V57.6Z"/><path d="M128,54.3q0,5.6,1.25,8.3a4.57,4.57,0,0,0,4.55,2.7,13.37,13.37,0,0,0,4.35-.7,12.08,12.08,0,0,0,3.15-1.5,0.73,0.73,0,0,1,.7,0,1.71,1.71,0,0,1,.7.5,2.53,2.53,0,0,1,.45.75,0.73,0.73,0,0,1,0,.7,10.66,10.66,0,0,1-5,4.4A18.16,18.16,0,0,1,131,70.7q-6.8,0-9.6-3t-2.8-9.55V32.4a14.33,14.33,0,0,0-.1-1.9,1.31,1.31,0,0,0-.6-1,3.71,3.71,0,0,0-1.65-.35q-1.15,0-3.25-.05a0.68,0.68,0,0,1-.5-0.6,5.25,5.25,0,0,1-.25-1.3,3.28,3.28,0,0,1,.15-1.3,0.69,0.69,0,0,1,.6-0.6,20.37,20.37,0,0,0,4.3-.75,7.49,7.49,0,0,0,3.05-1.75,8.45,8.45,0,0,0,2-3.25,28.45,28.45,0,0,0,1.25-5.35,1.19,1.19,0,0,1,.8-0.9,3.76,3.76,0,0,1,1.5-.3,4,4,0,0,1,1.45.25,0.8,0.8,0,0,1,.65.65v8.6a5.81,5.81,0,0,0,.15,1.85,1.72,1.72,0,0,0,1.25.25h10.4a0.9,0.9,0,0,1,.9.8,5.91,5.91,0,0,1,.2,1.4,5.34,5.34,0,0,1-.25,1.45,1,1,0,0,1-1,.85h-10.7a0.72,0.72,0,0,0-.8.35A16.33,16.33,0,0,0,128,32V54.3Z"/><path d="M156.61,57.8a35.19,35.19,0,0,0,.2,4.15,5.13,5.13,0,0,0,1,2.65,5.44,5.44,0,0,0,2.65,1.6,28.54,28.54,0,0,0,5.15,1,1.28,1.28,0,0,1,.9.55,1.85,1.85,0,0,1,.3,1,1.69,1.69,0,0,1-.3,1,0.92,0.92,0,0,1-.8.45,65.55,65.55,0,0,1-7.15-.35,55.69,55.69,0,0,0-6.15-.35,58.78,58.78,0,0,0-6.4.35,57.29,57.29,0,0,1-6.2.35,1,1,0,0,1-.9-0.45,1.68,1.68,0,0,1-.3-1,1.85,1.85,0,0,1,.3-1,1.36,1.36,0,0,1,1-.55,17.82,17.82,0,0,0,4.15-.85,4.45,4.45,0,0,0,2.15-1.55,5.35,5.35,0,0,0,.85-2.6q0.15-1.6.15-4.1V30.7a3.7,3.7,0,0,0-.2-1.65,2.47,2.47,0,0,0-1.5-.25h-5a1,1,0,0,1-.9-0.55,2.36,2.36,0,0,1-.3-1.15,2.53,2.53,0,0,1,.35-1.3,1.33,1.33,0,0,1,1-.7l5.4-.5a1.76,1.76,0,0,0,.65-0.1,0.77,0.77,0,0,0,.4-0.45,3.17,3.17,0,0,0,.15-1.15V20.5a23.89,23.89,0,0,1,1.35-8.15,18.4,18.4,0,0,1,4-6.5,18.05,18.05,0,0,1,6.4-4.3A22.89,22.89,0,0,1,167.61,0a24.77,24.77,0,0,1,5,.5A14.22,14.22,0,0,1,177,2.15a9.37,9.37,0,0,1,3.15,3,8.19,8.19,0,0,1,1.2,4.55,4.09,4.09,0,0,1-1.4,3.1,4.82,4.82,0,0,1-3.4,1.3,5.6,5.6,0,0,1-3.05-.85,2.81,2.81,0,0,1-1.35-2.55,2.91,2.91,0,0,1,.45-2A1.56,1.56,0,0,0,173,7.6a3.26,3.26,0,0,0-1.7-3,8.39,8.39,0,0,0-4.3-1,9.32,9.32,0,0,0-6,1.7,10.08,10.08,0,0,0-3.1,4.3,18.11,18.11,0,0,0-1.15,5.65q-0.15,3.05-.15,5.75v1.9a3,3,0,0,0,.2,1.45,2,2,0,0,0,1.3.25h9.7a1,1,0,0,1,.9.65,3.65,3.65,0,0,1,0,2.9,1,1,0,0,1-.9.65h-9.7a2,2,0,0,0-1.3.25,3.67,3.67,0,0,0-.2,1.65V57.8Z"/><path d="M206.46,45.5a31.67,31.67,0,0,1-1.7,10.8,21.5,21.5,0,0,1-4.85,7.9A20.56,20.56,0,0,1,192.36,69a27.72,27.72,0,0,1-9.8,1.65,23.89,23.89,0,0,1-8.7-1.55,18.72,18.72,0,0,1-6.9-4.6,21.92,21.92,0,0,1-4.6-7.7,31.85,31.85,0,0,1-1.7-11,24.93,24.93,0,0,1,1.7-9.35,20.91,20.91,0,0,1,4.75-7.25,21.74,21.74,0,0,1,7.35-4.7,25.35,25.35,0,0,1,9.4-1.7,26.44,26.44,0,0,1,9,1.5,20.23,20.23,0,0,1,7.15,4.35,19.85,19.85,0,0,1,4.7,7.05A25.73,25.73,0,0,1,206.46,45.5ZM196,46.6a53.8,53.8,0,0,0-.5-7.4,22.53,22.53,0,0,0-1.8-6.4,11.52,11.52,0,0,0-3.6-4.5,9.67,9.67,0,0,0-5.9-1.7,11.34,11.34,0,0,0-6.5,1.7,11.92,11.92,0,0,0-4,4.55,21.17,21.17,0,0,0-2,6.45,49.54,49.54,0,0,0-.55,7.5,50.78,50.78,0,0,0,.5,7,21.7,21.7,0,0,0,1.9,6.5,13.26,13.26,0,0,0,3.85,4.8,9.9,9.9,0,0,0,6.25,1.9,10.23,10.23,0,0,0,6.3-1.8,12.16,12.16,0,0,0,3.75-4.7,21.73,21.73,0,0,0,1.8-6.55A60,60,0,0,0,196,46.6Z"/><path d="M207,18.9q0-4.3-.2-6.85a9.6,9.6,0,0,0-1-4,4.06,4.06,0,0,0-2.45-1.9,25.45,25.45,0,0,0-4.55-.8,0.8,0.8,0,0,1-.75-0.5,2.85,2.85,0,0,1-.3-1,1.79,1.79,0,0,1,.2-1,0.87,0.87,0,0,1,.85-0.5q3-.2,7.25-0.6a41.36,41.36,0,0,0,8-1.5q1.4-.4,1.85.15a2.46,2.46,0,0,1,.55,1.15v56q0,2.5.1,4.2a6.14,6.14,0,0,0,.75,2.8,4.18,4.18,0,0,0,2.1,1.7,15.69,15.69,0,0,0,4,.9,1.28,1.28,0,0,1,.9.55,1.85,1.85,0,0,1,.3,1,1.68,1.68,0,0,1-.3,1,1,1,0,0,1-.9.45,47.24,47.24,0,0,1-5.4-.35,51.72,51.72,0,0,0-6-.35,56.07,56.07,0,0,0-6.3.35,56.34,56.34,0,0,1-6.3.35,0.92,0.92,0,0,1-.8-0.45,1.68,1.68,0,0,1-.3-1,1.85,1.85,0,0,1,.3-1,1.28,1.28,0,0,1,.9-0.55,17.87,17.87,0,0,0,4.35-.9,4.59,4.59,0,0,0,2.25-1.65,5.23,5.23,0,0,0,.8-2.6q0.1-1.55.1-3.85V18.9Z"/><path d="M236.3,57.6q0,2.5.1,4.2a6.64,6.64,0,0,0,.7,2.8A4,4,0,0,0,239,66.3a12.09,12.09,0,0,0,3.55.9,1.28,1.28,0,0,1,.9.55,1.85,1.85,0,0,1,.3,1,1.68,1.68,0,0,1-.3,1,1,1,0,0,1-.9.45,41.17,41.17,0,0,1-4.7-.35,49.21,49.21,0,0,0-5.9-.35,54.77,54.77,0,0,0-6.25.35,51.59,51.59,0,0,1-5.85.35,0.92,0.92,0,0,1-.8-0.45,1.68,1.68,0,0,1-.3-1,1.85,1.85,0,0,1,.3-1,1.28,1.28,0,0,1,.9-0.55,15.73,15.73,0,0,0,4.05-.9,4.31,4.31,0,0,0,2.1-1.65,5.57,5.57,0,0,0,.75-2.6q0.1-1.55.1-3.85V42.1q0-4.3-.2-6.9a10.67,10.67,0,0,0-.9-4,3.7,3.7,0,0,0-2.1-1.85,18.6,18.6,0,0,0-3.8-.8,1,1,0,0,1-.9-0.5,1.82,1.82,0,0,1,0-2,1,1,0,0,1,.9-0.5q1-.1,2.45-0.2t3-.25q1.6-.15,3.25-0.4t3-.55a10,10,0,0,0,1.75-.45,3.13,3.13,0,0,1,1-.25,1.57,1.57,0,0,1,1.55.7,2.94,2.94,0,0,1,.35,1.3V57.6ZM231,13.3a6.36,6.36,0,0,1-4.3-1.55,4.88,4.88,0,0,1-1.8-3.85A5.15,5.15,0,0,1,226.6,4a5.9,5.9,0,0,1,4.2-1.6,5.18,5.18,0,0,1,4,1.65A5.57,5.57,0,0,1,236.3,8a5.19,5.19,0,0,1-1.5,3.75A5.06,5.06,0,0,1,231,13.3Z"/><path d="M282,45.5a31.67,31.67,0,0,1-1.7,10.8,21.5,21.5,0,0,1-4.85,7.9A20.56,20.56,0,0,1,267.89,69a27.72,27.72,0,0,1-9.8,1.65,23.89,23.89,0,0,1-8.7-1.55,18.72,18.72,0,0,1-6.9-4.6,21.92,21.92,0,0,1-4.6-7.7,31.85,31.85,0,0,1-1.7-11,24.93,24.93,0,0,1,1.7-9.35,20.91,20.91,0,0,1,4.75-7.25A21.74,21.74,0,0,1,250,24.6a25.35,25.35,0,0,1,9.4-1.7,26.44,26.44,0,0,1,9,1.5,20.23,20.23,0,0,1,7.15,4.35,19.85,19.85,0,0,1,4.7,7.05A25.73,25.73,0,0,1,282,45.5Zm-10.5,1.1a53.8,53.8,0,0,0-.5-7.4,22.53,22.53,0,0,0-1.8-6.4,11.52,11.52,0,0,0-3.6-4.5,9.67,9.67,0,0,0-5.9-1.7,11.34,11.34,0,0,0-6.5,1.7,11.92,11.92,0,0,0-4,4.55,21.17,21.17,0,0,0-2,6.45,49.54,49.54,0,0,0-.55,7.5,50.78,50.78,0,0,0,.5,7,21.7,21.7,0,0,0,1.9,6.5,13.26,13.26,0,0,0,3.85,4.8,9.9,9.9,0,0,0,6.25,1.9,10.23,10.23,0,0,0,6.3-1.8,12.16,12.16,0,0,0,3.75-4.7A21.73,21.73,0,0,0,271,54,60,60,0,0,0,271.49,46.6Z"/></svg>